<svg width="21" height="20" viewBox="0 0 21 20" fill="none" xmlns="http://www.w3.org/2000/svg">
<path d="M20.7216 9.22001C21.0916 9.63001 21.0916 10.32 20.7216 10.73C20.7216 10.73 16.0416 16 10.6716 16C5.29164 16 1.25164 10.77 1.25164 10.77C1.08541 10.5364 0.996094 10.2568 0.996094 9.97001C0.996094 9.68327 1.08541 9.40365 1.25164 9.17001C1.25164 9.17001 5.30164 4.00001 10.6816 4.00001C16.0516 4.00001 20.7316 9.22001 20.7316 9.22001H20.7216ZM11.0216 14.5C11.6126 14.5 12.1977 14.3836 12.7437 14.1575C13.2897 13.9313 13.7858 13.5999 14.2036 13.182C14.6215 12.7641 14.953 12.2681 15.1791 11.7221C15.4052 11.1761 15.5216 10.591 15.5216 10C15.5216 9.40906 15.4052 8.8239 15.1791 8.27794C14.953 7.73197 14.6215 7.23589 14.2036 6.81803C13.7858 6.40017 13.2897 6.0687 12.7437 5.84255C12.1977 5.61641 11.6126 5.50001 11.0216 5.50001C9.82816 5.50001 8.68357 5.97412 7.83966 6.81803C6.99574 7.66194 6.52164 8.80654 6.52164 10C6.52164 11.1935 6.99574 12.3381 7.83966 13.182C8.68357 14.0259 9.82816 14.5 11.0216 14.5V14.5ZM11.6216 7.58001C11.6616 8.56001 12.4416 9.33001 13.4116 9.37001C13.5528 9.90033 13.5155 10.4624 13.3055 10.9694C13.0956 11.4764 12.7247 11.9003 12.2499 12.1756C11.7752 12.4509 11.2231 12.5624 10.6787 12.4928C10.1344 12.4232 9.62807 12.1764 9.23786 11.7906C8.84766 11.4047 8.59526 10.9012 8.5196 10.3576C8.44394 9.81409 8.54923 9.26076 8.81922 8.78299C9.08921 8.30522 9.5089 7.92957 10.0136 7.71397C10.5182 7.49837 11.0798 7.45481 11.6116 7.59001L11.6216 7.58001ZM8.64164 3.48001C8.46788 3.4812 8.29911 3.42203 8.16414 3.3126C8.02917 3.20316 7.93639 3.05026 7.90164 2.88001L7.70164 1.91001C7.67094 1.81083 7.66116 1.70636 7.67293 1.60321C7.6847 1.50005 7.71776 1.40047 7.77002 1.31075C7.82227 1.22104 7.89258 1.14315 7.9765 1.08202C8.06042 1.02089 8.15611 0.977851 8.25753 0.955623C8.35894 0.933395 8.46387 0.932465 8.56566 0.952892C8.66745 0.973319 8.76389 1.01466 8.84888 1.07429C8.93387 1.13392 9.00555 1.21055 9.05939 1.29933C9.11322 1.3881 9.14804 1.48708 9.16164 1.59001L9.37164 2.57001C9.3938 2.67858 9.39163 2.79071 9.36529 2.89834C9.33895 3.00597 9.28908 3.10643 9.21928 3.19248C9.14947 3.27854 9.06147 3.34806 8.96159 3.39605C8.86171 3.44404 8.75244 3.4693 8.64164 3.47001V3.48001ZM13.3616 3.48001C13.2508 3.4793 13.1416 3.45404 13.0417 3.40605C12.9418 3.35806 12.8538 3.28854 12.784 3.20248C12.7142 3.11643 12.6643 3.01597 12.638 2.90834C12.6116 2.80071 12.6095 2.68858 12.6316 2.58001L12.8316 1.59001C12.9316 1.19001 13.3316 0.930011 13.7316 1.02001C14.1316 1.10001 14.3916 1.50001 14.3016 1.91001L14.1016 2.88001C14.0669 3.05026 13.9741 3.20316 13.8391 3.3126C13.7042 3.42203 13.5354 3.4812 13.3616 3.48001V3.48001ZM17.7116 4.98001C17.5827 4.97944 17.4561 4.94563 17.344 4.88185C17.2319 4.81807 17.1382 4.72647 17.0718 4.61589C17.0055 4.50532 16.9688 4.3795 16.9652 4.2506C16.9617 4.1217 16.9915 3.99406 17.0516 3.88001L17.5116 2.99001C17.6045 2.81364 17.7635 2.68137 17.9539 2.6223C18.1442 2.56322 18.3503 2.58219 18.5266 2.67501C18.703 2.76784 18.8353 2.92692 18.8944 3.11727C18.9534 3.30762 18.9345 3.51364 18.8416 3.69001L18.3716 4.58001C18.2316 4.83001 17.9716 4.98001 17.7116 4.98001V4.98001ZM4.29164 4.98001C4.15571 4.97941 4.02249 4.94187 3.90624 4.87142C3.78999 4.80096 3.69507 4.70024 3.63164 4.58001L3.16164 3.70001C3.11568 3.61203 3.08749 3.51585 3.0787 3.41697C3.06991 3.31809 3.08067 3.21845 3.11039 3.12374C3.1401 3.02902 3.18818 2.94109 3.25188 2.86495C3.31558 2.78882 3.39365 2.72597 3.48164 2.68001C3.56962 2.63405 3.6658 2.60587 3.76468 2.59707C3.86356 2.58828 3.9632 2.59905 4.05791 2.62876C4.15263 2.65848 4.24056 2.70656 4.3167 2.77026C4.39283 2.83395 4.45568 2.91203 4.50164 3.00001L4.97164 3.87001C5.03222 3.98481 5.06197 4.11337 5.05797 4.24311C5.05398 4.37285 5.01639 4.49933 4.94887 4.61019C4.88134 4.72104 4.78621 4.81248 4.67276 4.87555C4.55931 4.93862 4.43143 4.97117 4.30164 4.97001L4.29164 4.98001Z" fill="#D9E9FF"/>
</svg>
