<svg width="21" height="20" viewBox="0 0 21 20" fill="none" xmlns="http://www.w3.org/2000/svg">
<path fill-rule="evenodd" clip-rule="evenodd" d="M11.0216 5.39997C12.2816 5.39997 13.4216 5.92997 14.2216 6.76997L12.0716 8.06997C11.8716 7.74997 11.7516 7.38997 11.7416 6.99997C11.2526 6.87827 10.7407 6.88175 10.2533 7.01009C9.76592 7.13843 9.31873 7.38749 8.95301 7.73427C8.58729 8.08106 8.31483 8.5144 8.16079 8.99428C8.00674 9.47416 7.97608 9.98511 8.07164 10.48L6.75164 11.28C6.53666 10.6074 6.48297 9.89367 6.59491 9.1965C6.70685 8.49932 6.98128 7.83828 7.39601 7.26681C7.81073 6.69534 8.35412 6.22949 8.98223 5.90692C9.61035 5.58434 10.3056 5.41411 11.0116 5.40997L11.0216 5.39997ZM9.09164 12.2L7.76164 13H7.77164L5.52164 14.36L2.52164 16.16C2.29475 16.2961 2.02319 16.3367 1.76641 16.273C1.50963 16.2092 1.28857 16.0463 1.15164 15.82C1.08226 15.7078 1.03574 15.583 1.01478 15.4528C0.993816 15.3226 0.998814 15.1896 1.02949 15.0613C1.06016 14.933 1.1159 14.8121 1.1935 14.7055C1.2711 14.5988 1.36902 14.5086 1.48164 14.44L3.72164 13.1C2.18164 11.86 1.25164 10.67 1.25164 10.67C1.08541 10.4363 0.996094 10.1567 0.996094 9.86997C0.996094 9.58323 1.08541 9.30361 1.25164 9.06997C1.25164 9.06997 5.30164 3.89997 10.6816 3.89997C12.7016 3.89997 14.6216 4.64997 16.2316 5.56997L19.4316 3.63997C19.6597 3.50338 19.9327 3.463 20.1906 3.5277C20.4485 3.5924 20.6701 3.75688 20.8066 3.98497C20.9432 4.21306 20.9836 4.48606 20.9189 4.74392C20.8542 5.00179 20.6897 5.22338 20.4616 5.35997L18.0916 6.77997L18.1016 6.78997L15.2816 8.48997V8.47997L13.9316 9.27997V9.29997L9.10164 12.2H9.09164ZM11.0016 12.9C10.7016 12.9 10.4016 12.84 10.1216 12.76L13.9416 10.46C13.8115 11.145 13.4468 11.7632 12.9103 12.2085C12.3738 12.6538 11.6989 12.8983 11.0016 12.9ZM20.7216 9.11997C21.0916 9.52997 21.0916 10.22 20.7216 10.63C20.7216 10.63 16.0416 15.9 10.6716 15.9C9.17164 15.9 7.79164 15.49 6.56164 14.9L8.59164 13.68C9.27099 14.1158 10.0551 14.361 10.8617 14.3896C11.6684 14.4183 12.4679 14.2295 13.1765 13.843C13.8851 13.4565 14.4767 12.8865 14.8893 12.1928C15.3019 11.4991 15.5203 10.7071 15.5216 9.89997C15.5216 9.76997 15.4916 9.64997 15.4816 9.52997L18.9416 7.44997C20.0516 8.36997 20.7216 9.11997 20.7216 9.11997Z" fill="#D9E9FF"/>
</svg>
